HIERARCHY
ROOT Hips
{
	OFFSET 0.000000 0.000000 0.000000
	CHANNELS 6 Xposition Yposition Zposition Zrotation Yrotation Xrotation 
	JOINT LHipJoint
	{
		OFFSET 0.000000 0.000000 0.000000
		CHANNELS 3 Zrotation Yrotation Xrotation
		JOINT LeftUpLeg
		{
			OFFSET 1.363060 -1.794630 0.839290
			CHANNELS 3 Zrotation Yrotation Xrotation
			JOINT LeftLeg
			{
				OFFSET 2.448110 -6.726130 0.000000
				CHANNELS 3 Zrotation Yrotation Xrotation
				JOINT LeftFoot
				{
					OFFSET 2.562200 -7.039590 0.000000
					CHANNELS 3 Zrotation Yrotation Xrotation
					JOINT LeftToeBase
					{
						OFFSET 0.157640 -0.433110 2.322550
						CHANNELS 3 Zrotation Yrotation Xrotation
						End Site
						{
							OFFSET 0.000000 0.000000 0.000000
						}
					}
				}
			}
		}
	}
	JOINT RHipJoint
	{
		OFFSET 0.000000 0.000000 0.000000
		CHANNELS 3 Zrotation Yrotation Xrotation
		JOINT RightUpLeg
		{
			OFFSET -1.305520 -1.794630 0.839290
			CHANNELS 3 Zrotation Yrotation Xrotation
			JOINT RightLeg
			{
				OFFSET -2.542530 -6.985550 0.000000
				CHANNELS 3 Zrotation Yrotation Xrotation
				JOINT RightFoot
				{
					OFFSET -2.568260 -7.056230 0.000000
					CHANNELS 3 Zrotation Yrotation Xrotation
					JOINT RightToeBase
					{
						OFFSET -0.164730 -0.452590 2.363150
						CHANNELS 3 Zrotation Yrotation Xrotation
						End Site
						{
							OFFSET 0.000000 0.000000 0.000000
						}
					}
				}
			}
		}
	}
	JOINT LowerBack
	{
		OFFSET 0.000000 0.000000 0.000000
		CHANNELS 3 Zrotation Yrotation Xrotation
		JOINT Spine
		{
			OFFSET 0.028270 2.035590 -0.193380
			CHANNELS 3 Zrotation Yrotation Xrotation
			JOINT Spine1
			{
				OFFSET 0.056720 2.048850 -0.042750
				CHANNELS 3 Zrotation Yrotation Xrotation
				JOINT Neck
				{
					OFFSET 0.000000 0.000000 0.000000
					CHANNELS 3 Zrotation Yrotation Xrotation
					JOINT Neck1
					{
						OFFSET -0.054170 1.746240 0.172020
						CHANNELS 3 Zrotation Yrotation Xrotation
						JOINT Head
						{
							OFFSET 0.104070 1.761360 -0.123970
							CHANNELS 3 Zrotation Yrotation Xrotation
							End Site
							{
								OFFSET 0.000000 0.000000 0.000000
							}
						}
					}
				}
				JOINT LeftShoulder
				{
					OFFSET 0.000000 0.000000 0.000000
					CHANNELS 3 Zrotation Yrotation Xrotation
					JOINT LeftArm
					{
						OFFSET 3.362410 1.200890 -0.311210
						CHANNELS 3 Zrotation Yrotation Xrotation
						JOINT LeftForeArm
						{
							OFFSET 4.983000 -0.000000 -0.000000
							CHANNELS 3 Zrotation Yrotation Xrotation
							JOINT LeftHand
							{
								OFFSET 3.483560 -0.000000 -0.000000
								CHANNELS 3 Zrotation Yrotation Xrotation
								JOINT LeftFingerBase
								{
									OFFSET 0.000000 0.000000 0.000000
									CHANNELS 3 Zrotation Yrotation Xrotation
									JOINT LeftHandIndex1
									{
										OFFSET 0.715260 -0.000000 -0.000000
										CHANNELS 3 Zrotation Yrotation Xrotation
										End Site
										{
											OFFSET 0.000000 0.000000 0.000000
										}
									}
								}
								JOINT LThumb
								{
									OFFSET 0.000000 0.000000 0.000000
									CHANNELS 3 Zrotation Yrotation Xrotation
									End Site
									{
										OFFSET 0.000000 0.000000 0.000000
									}
								}
							}
						}
					}
				}
				JOINT RightShoulder
				{
					OFFSET 0.000000 0.000000 0.000000
					CHANNELS 3 Zrotation Yrotation Xrotation
					JOINT RightArm
					{
						OFFSET -3.136600 1.374050 -0.404650
						CHANNELS 3 Zrotation Yrotation Xrotation
						JOINT RightForeArm
						{
							OFFSET -5.241900 -0.000000 -0.000000
							CHANNELS 3 Zrotation Yrotation Xrotation
							JOINT RightHand
							{
								OFFSET -3.444170 -0.000000 -0.000000
								CHANNELS 3 Zrotation Yrotation Xrotation
								JOINT RightFingerBase
								{
									OFFSET 0.000000 0.000000 0.000000
									CHANNELS 3 Zrotation Yrotation Xrotation
									JOINT RightHandIndex1
									{
										OFFSET -0.622530 -0.000000 -0.000000
										CHANNELS 3 Zrotation Yrotation Xrotation
										End Site
										{
											OFFSET 0.000000 0.000000 0.000000
										}
									}
								}
								JOINT RThumb
								{
									OFFSET 0.000000 0.000000 0.000000
									CHANNELS 3 Zrotation Yrotation Xrotation
									End Site
									{
										OFFSET 0.000000 0.000000 0.000000
									}
								}
							}
						}
					}
				}
			}
		}
	}
}
MOTION
Frames: 8
Frame Time: 0.008333
-5.499053 14.536160 -0.877453 -173.452792 -84.382313 -120.643432 -9.649283 -1.004177 2.725309 -8.979622 -4.107414 -108.366548 -2.519718 7.070186 58.340602 3.093769 7.375215 -18.938969 -0.951500 0.000000 -44.769199 7.523769 0.927575 4.286006 6.942055 12.590583 -108.208054 2.155151 -6.894876 61.050696 -1.764236 -0.612267 -19.813922 0.456200 0.000001 -56.513000 3.911320 -0.673893 -1.773785 0.121624 -0.951514 -3.875842 -5.165039 -1.020702 -2.111091 10.353209 -8.015968 -10.318405 -2.821672 -0.128730 -1.705621 0.000000 0.000000 0.000000 3.567785 8.315321 2.918411 -68.031314 -9.284125 -0.924940 0.055641 -89.528391 -0.073849 8.904588 1.012861 0.044268 -0.190264 0.471719 0.000000 0.000000 0.000000 0.000000 0.000000 0.000000 0.000000 11.794894 -2.457585 1.952823 68.549797 4.010538 7.382329 -179.948495 88.160230 179.874042 -18.517522 12.853423 -2.243588 0.301678 -0.632979 0.000000 0.000000 0.000000 0.000000 0.000000 0.000000 0.000000 
-5.511536 14.558960 -0.900210 -173.113194 -84.286502 -121.842554 -9.641971 -1.062986 2.713956 -8.738542 -3.738913 -107.415859 -2.395045 6.998567 58.536240 3.196587 7.874207 -19.006963 -1.010200 0.000000 -44.796300 7.460082 0.982094 4.227402 7.099726 12.558184 -107.159863 2.073216 -6.803044 61.264356 -1.829188 -0.798864 -20.121098 0.505000 -0.000000 -56.481700 4.057568 -0.671840 -1.806888 0.159387 -0.959664 -3.866207 -5.176481 -1.033358 -2.017820 10.380643 -8.140842 -10.489221 -2.809028 -0.126277 -1.737008 0.000000 0.000000 0.000000 3.519479 8.365392 2.966651 -67.944156 -8.833641 -0.916208 -0.025900 -87.543962 -0.075187 9.316847 0.803752 0.029535 -0.191179 0.463059 0.000000 0.000000 0.000000 0.000000 0.000000 0.000000 0.000000 11.976022 -2.616632 2.012564 68.548974 4.121006 7.345098 0.077987 89.737261 -0.121117 -18.450536 13.067858 -2.268206 0.295245 -0.618718 0.000000 0.000000 0.000000 0.000000 0.000000 0.000000 0.000000 
-5.526502 14.583829 -0.923357 -172.671870 -84.181210 -123.217637 -9.634338 -1.119460 2.695240 -8.509278 -3.336758 -106.370257 -2.274764 6.926189 58.741038 3.293443 8.347539 -19.120952 -1.079900 -0.000001 -44.757200 7.399210 1.039909 4.165551 7.278875 12.520544 -106.006704 1.989118 -6.703772 61.477553 -1.898796 -1.004171 -20.445087 0.559500 0.000000 -56.472300 4.211660 -0.674640 -1.838919 0.196900 -0.973685 -3.855135 -5.197388 -1.051971 -1.916255 10.382026 -8.265976 -10.659966 -2.804037 -0.124536 -1.766269 0.000000 0.000000 0.000000 3.470794 8.402449 3.016659 -67.863590 -8.269266 -0.893033 -0.102569 -85.546063 -0.075887 9.698175 0.545549 0.009109 -0.191786 0.453923 -0.000000 0.000000 0.000000 0.000000 0.000000 0.000000 0.000000 12.154737 -2.783643 2.070858 68.561039 4.231975 7.297171 0.110886 87.538194 -0.115930 -18.369071 13.319920 -2.296925 0.288713 -0.604143 0.000000 0.000000 0.000000 0.000000 0.000000 0.000000 0.000000 
-5.544267 14.610951 -0.946598 -172.047170 -84.064566 -124.852048 -9.627540 -1.172448 2.667542 -8.287951 -2.888201 -105.228730 -2.160910 6.855138 58.954710 3.377696 8.770879 -19.278255 -1.159000 -0.000000 -44.704200 7.342172 1.100912 4.097905 7.492974 12.480608 -104.736056 1.905885 -6.597125 61.682795 -1.971319 -1.222049 -20.785297 0.619900 -0.000000 -56.481500 4.383899 -0.678742 -1.865264 0.236146 -0.990355 -3.839718 -5.228887 -1.073110 -1.800139 10.349045 -8.402978 -10.832240 -2.806118 -0.123451 -1.793730 0.000000 0.000000 0.000000 3.400217 8.451921 3.067387 -67.786469 -7.610353 -0.842255 -0.176689 -83.516121 -0.075543 10.000662 0.254081 -0.015710 -0.191512 0.443739 -0.000000 0.000000 0.000000 0.000000 0.000000 0.000000 0.000000 12.323529 -2.970168 2.123629 68.584386 4.349510 7.244150 0.150943 85.248344 -0.110530 -18.294909 13.602477 -2.331242 0.282497 -0.589108 0.000000 0.000000 0.000000 0.000000 0.000000 0.000000 0.000000 
-5.565133 14.640273 -0.970058 -171.317575 -83.935144 -126.665909 -9.622501 -1.220499 2.631482 -8.080066 -2.396335 -103.993165 -2.055149 6.786728 59.176809 3.443868 9.127325 -19.462408 -1.243300 0.000000 -44.710900 7.291881 1.162988 4.027074 7.739726 12.430069 -103.351471 1.825037 -6.484394 61.875692 -2.044665 -1.445453 -21.139244 0.685400 0.000000 -56.510500 4.572114 -0.684025 -1.890654 0.276351 -1.009695 -3.821076 -5.271466 -1.096802 -1.667780 10.274449 -8.548661 -10.999570 -2.815443 -0.123166 -1.816859 0.000000 0.000000 0.000000 3.296731 8.512025 3.118523 -67.713514 -6.843956 -0.773589 -0.250983 -81.443960 -0.073814 10.177910 -0.049475 -0.042525 -0.189778 0.431870 -0.000000 0.000000 0.000000 0.000000 0.000000 0.000000 0.000000 12.475663 -3.174094 2.167129 68.621841 4.454200 7.177862 0.198362 82.881996 -0.105034 -18.245606 13.907643 -2.372257 0.276837 -0.573513 0.000000 0.000000 0.000000 0.000000 0.000000 0.000000 0.000000 
-5.589227 14.672030 -0.993824 -170.537388 -83.792468 -128.607351 -9.620113 -1.263255 2.585963 -7.888706 -1.859889 -102.665524 -1.957285 6.722665 59.411306 3.487173 9.406466 -19.645914 -1.325600 0.000000 -44.864200 7.250374 1.224478 3.953363 8.020087 12.360857 -101.850252 1.748338 -6.366481 62.050550 -2.116705 -1.667085 -21.504814 0.755500 0.000000 -56.560700 4.775994 -0.689891 -1.915178 0.317432 -1.031092 -3.798098 -5.324589 -1.122300 -1.514366 10.152475 -8.708373 -11.158444 -2.830671 -0.123646 -1.834170 0.000000 0.000000 0.000000 3.146966 8.597196 3.168237 -67.644605 -5.981321 -0.690104 -0.329220 -79.305034 -0.070523 10.196639 -0.341400 -0.067836 -0.186290 0.417725 -0.000000 0.000000 0.000000 0.000000 0.000000 0.000000 0.000000 12.601995 -3.402680 2.196593 68.676225 4.541243 7.097128 0.253069 80.448713 -0.099538 -18.239713 14.226665 -2.420972 0.271982 -0.557227 0.000000 0.000000 0.000000 0.000000 0.000000 0.000000 0.000000 
-5.616752 14.706278 -1.018183 -169.824350 -83.636388 -130.557132 -9.621891 -1.300858 2.530079 -7.721546 -1.283636 -101.248990 -1.865889 6.664262 59.664508 3.504602 9.607968 -19.789276 -1.396600 0.000000 -45.251700 7.219596 1.282608 3.878579 8.327738 12.260215 -100.234986 1.676962 -6.244392 62.201742 -2.185281 -1.879649 -21.878671 0.829000 0.000000 -56.638000 4.987458 -0.697770 -1.941129 0.357774 -1.055643 -3.770207 -5.386708 -1.150595 -1.335052 9.981299 -8.886872 -11.304915 -2.849999 -0.124823 -1.844119 0.000000 0.000000 0.000000 2.942417 8.721693 3.214232 -67.579857 -5.035672 -0.600251 -0.415541 -77.071148 -0.065669 10.036839 -0.595805 -0.087946 -0.180986 0.400778 -0.000000 0.000000 0.000000 0.000000 0.000000 0.000000 0.000000 12.696131 -3.663888 2.207243 68.750265 4.605660 7.001190 0.314688 77.957307 -0.094093 -18.292065 14.550183 -2.478285 0.268100 -0.540121 0.000000 0.000000 0.000000 0.000000 0.000000 0.000000 0.000000 
-5.647678 14.743353 -1.043565 -169.316118 -83.468266 -132.379244 -9.629773 -1.334157 2.462445 -7.588151 -0.674084 -99.748590 -1.778171 6.612682 59.944883 3.495023 9.741096 -19.844683 -1.445500 -0.000000 -45.944900 7.200278 1.334455 3.804007 8.653073 12.113736 -98.508560 1.611670 -6.118858 62.323489 -2.248515 -2.076703 -22.257713 0.904600 -0.000000 -56.739600 5.193374 -0.709838 -1.969931 0.394825 -1.084831 -3.736991 -5.455324 -1.183063 -1.126410 9.761984 -9.086985 -11.434185 -2.871291 -0.126604 -1.845031 0.000000 0.000000 0.000000 2.680599 8.895233 3.253912 -67.519877 -4.020633 -0.520463 -0.513963 -74.714196 -0.059435 9.694659 -0.785481 -0.099560 -0.174033 0.380625 -0.000000 0.000000 0.000000 0.000000 0.000000 0.000000 0.000000 12.752329 -3.963793 2.195002 68.848086 4.641500 6.886176 0.382578 75.417355 -0.088714 -18.411025 14.868990 -2.544296 0.265234 -0.522105 0.000000 0.000000 0.000000 0.000000 0.000000 0.000000 0.000000 
